# xmcd CD Database Entry
#
# Track frame offsets:
# 150
# 17132
# 31337
# 60370
# 82122
# 110800
# 149312
#
# Disc length: 2243 seconds
#
# Revision: 1
# Processed by: cddbd v1.4b41PL1 Copyright (c) Steve Scherf et al.
# Submitted via: tcd 2.0b
#
DISCID=5a08c107
DTITLE=Matt Walker - Live At The Continental
DYEAR=1900
DGENRE=
TTITLE0=Don't Need Sunshine
TTITLE1=Deepest Valley (Live)
TTITLE2=Dirty Fog (Live)
TTITLE3=Room To Move (Live)
TTITLE4=This Brokey Sky (Live)
TTITLE5=Second Hand Luck (Live)
TTITLE6=All By Myself (Live)
EXTD=
EXTT0=
EXTT1=
EXTT2=
EXTT3=
EXTT4=
EXTT5=
EXTT6=
PLAYORDER=
